<svg width="417" height="417" viewBox="0 0 417 417" fill="none" xmlns="http://www.w3.org/2000/svg">
<path d="M240.935 32.4707C240.935 14.7707 226.635 0.470703 208.935 0.470703C191.235 0.470703 176.935 14.7707 176.935 32.4707V176.471H32.9348C15.2348 176.471 0.934814 190.771 0.934814 208.471C0.934814 226.171 15.2348 240.471 32.9348 240.471H176.935V384.471C176.935 402.171 191.235 416.471 208.935 416.471C226.635 416.471 240.935 402.171 240.935 384.471V240.471H384.935C402.635 240.471 416.935 226.171 416.935 208.471C416.935 190.771 402.635 176.471 384.935 176.471H240.935V32.4707Z" fill="white"/>
</svg>
