<svg width="512" height="512" viewBox="0 0 512 512" fill="none" xmlns="http://www.w3.org/2000/svg">
<g clip-path="url(#clip0_138_8)">
<path d="M435 0.000177503C440.949 1.67128 444.538 4.85621 448 10.0002C451.766 17.1432 452.773 25.0957 451 33.0002C448.167 36.8729 444.687 39.5847 440.913 42.4704C437.324 45.3409 434.066 48.5734 430.75 51.7502C429.288 53.1316 427.824 54.5118 426.359 55.8908C425.27 56.9185 425.27 56.9185 424.158 57.967C420.778 61.1512 417.389 64.3258 414 67.5002C408.493 72.6594 402.994 77.8267 397.5 83.0002C391.349 88.7924 385.19 94.5753 379.024 100.351C374.133 104.934 369.253 109.528 364.375 114.125C356.951 121.12 349.486 128.071 342 135C341.53 134.59 341.059 134.18 340.574 133.758C339.952 133.219 339.329 132.68 338.688 132.125C337.765 131.325 337.765 131.325 336.824 130.508C334.865 128.836 334.865 128.836 332 127C329.473 129.187 327.092 131.388 325 134C324.927 136.555 324.927 136.555 326 139C326.698 146.121 324.777 152.484 320.34 158.102C318.313 160.191 316.208 162.103 314 164C313.23 164.673 312.461 165.346 311.668 166.039C294.296 180.716 275.436 192.143 255 202C255.358 202.477 255.715 202.954 256.084 203.445C257.144 204.857 258.203 206.27 259.262 207.682C260.367 209.157 261.474 210.63 262.582 212.103C274.566 228.061 286.053 244.245 295.688 261.75C296.181 262.643 296.674 263.535 297.182 264.455C303.047 275.377 306.2 285.621 303.273 298.098C301.827 302.373 300.383 305.525 297.527 309.074C294.044 313.847 293.335 319.168 292.25 324.875C290.17 335.037 287.722 344.995 284.915 354.976C272.732 398.4 279.191 433.171 293.938 475.563C297.033 484.744 298.264 492.026 294 501C290.535 506.865 284.314 509.896 278 512C267.576 512.885 259.748 512.179 251.27 505.672C245.479 500.016 243.458 491.493 241 484C240.688 483.056 240.375 482.113 240.054 481.14C227.325 442.277 217.646 402.061 231 362C198.292 382.114 186.476 409.486 175.891 445.043C175.543 446.205 175.194 447.367 174.836 448.563C174.171 450.796 173.518 453.031 172.877 455.271C169.871 465.414 165.654 473.694 156.16 479.035C148.616 482.352 140.801 481.864 133.125 479.25C125.858 476.283 122.507 472.889 119 466C115.474 455.421 120.125 444.842 123.375 434.75C123.925 433.011 124.474 431.272 125.022 429.533C126.403 425.17 127.803 420.813 129.209 416.458C129.952 414.15 130.688 411.839 131.421 409.527C142.496 374.614 155.769 347.857 187.75 328.125C208.31 315.878 208.31 315.878 224.531 298.672C225.265 294.491 223.016 291.884 220.75 288.563C220.289 287.86 219.828 287.157 219.353 286.432C217.925 284.272 216.468 282.134 215 280C214.363 279.067 214.363 279.067 213.713 278.116C205.073 265.535 195.519 253.677 185.613 242.078C183.221 239.273 180.885 236.426 178.563 233.563C175.191 229.419 171.74 225.356 168.25 221.313C166.161 218.88 164.079 216.441 162 214C161.139 212.99 161.139 212.99 160.26 211.96C158.494 209.879 156.746 207.785 155 205.688C154.46 205.055 153.92 204.421 153.364 203.769C144.49 193.005 142.886 181.582 144 168C146.087 157.194 152.813 148.108 161.438 141.5C170.35 135.534 178.267 133.963 189 135C189.955 135.357 190.91 135.714 191.895 136.082C198.535 138.045 205.583 135.459 212.012 133.485C212.87 133.224 213.728 132.963 214.612 132.694C225.501 129.315 236.148 125.27 246.813 121.25C249.886 120.096 252.961 118.944 256.037 117.795C257.928 117.088 259.818 116.378 261.707 115.665C271.472 112.004 279.759 108.904 290 113C287.202 116.005 284.471 118.084 280.906 120.11C279.89 120.691 278.873 121.273 277.826 121.873C276.728 122.492 275.631 123.112 274.5 123.75C272.752 124.747 271.004 125.744 269.256 126.742C267.42 127.788 265.582 128.831 263.743 129.874C260.029 131.982 256.322 134.103 252.617 136.227C240.441 143.204 228.25 150.153 216 157C217.32 157.99 218.64 158.98 220 160C241.183 151.134 260.919 140.834 277.785 124.977C284.183 119.267 289.711 115.862 298.375 115.813C299.497 115.798 300.618 115.784 301.773 115.77C304.965 115.998 307.103 116.718 310 118C313.806 117.77 315.521 115.745 318 113C316.445 109.183 313.964 106.808 311 104C312.29 101.135 313.595 99.1867 315.914 97.0744C316.502 96.5331 317.09 95.9917 317.695 95.434C318.65 94.5696 318.65 94.5696 319.625 93.6877C320.994 92.4302 322.362 91.1724 323.73 89.9142C324.437 89.2675 325.144 88.6207 325.873 87.9543C329.252 84.85 332.594 81.7059 335.938 78.5627C337.281 77.3021 338.625 76.0417 339.969 74.7814C340.968 73.8436 340.968 73.8436 341.988 72.8869C343.981 71.0178 345.975 69.1495 347.969 67.2814C354.82 60.8622 361.665 54.4365 368.5 48.0002C375.33 41.5689 382.169 35.148 389.016 28.7346C392.432 25.5341 395.844 22.3288 399.252 19.1198C400.613 17.8435 401.979 16.5723 403.35 15.3063C406.314 12.5655 409.207 9.82593 411.922 6.83611C419.006 -0.604778 424.897 -1.73109 435 0.000177503Z" fill="#C4C4C4"/>
<path d="M156 53C157.98 54.65 159.96 56.3 162 58C160.422 61.7105 158.093 64.2991 155.375 67.25C154.558 68.142 153.74 69.0341 152.898 69.9531C152.272 70.6286 151.645 71.3041 151 72C153.64 73.98 156.28 75.96 159 78C159.748 77.6391 160.495 77.2781 161.266 76.9062C162.25 76.4422 163.235 75.9781 164.25 75.5C165.224 75.0359 166.199 74.5719 167.203 74.0938C170 73 170 73 174 73C174.815 75.0822 175.627 77.1658 176.437 79.25C176.89 80.4102 177.342 81.5703 177.809 82.7656C179.826 88.2434 180.241 92.9544 180.312 98.75C180.356 99.9102 180.356 99.9102 180.4 101.094C180.47 107.521 178.897 112.717 174.587 117.601C172.146 119.841 170.441 120.952 167.125 121.312C166.424 121.209 165.722 121.106 165 121C164.773 121.681 164.546 122.361 164.312 123.062C159.991 132.734 152.736 138.096 143.176 142.238C133.668 145.567 123.185 144.899 113.855 141.387C103.992 136.597 97.2319 128.924 93.1875 118.812C89.7504 107.778 90.3796 97.8557 95.2187 87.3555C100.364 78.0504 107.815 71.2897 118 68C122.015 66.9846 125.803 66.866 129.937 66.875C131.122 66.8724 132.307 66.8698 133.527 66.8672C136.775 66.9914 139.812 67.3867 143 68C143.603 67.2523 144.207 66.5047 144.828 65.7344C146.027 64.2571 146.027 64.2571 147.25 62.75C148.039 61.7755 148.828 60.8009 149.641 59.7969C151.665 57.3975 153.741 55.1759 156 53ZM162 83C162.268 83.66 162.536 84.32 162.812 85C164.257 88.6494 165.629 92.3225 167 96C169.64 95.67 172.28 95.34 175 95C174.524 92.8743 174.044 90.7495 173.562 88.625C173.296 87.4416 173.029 86.2583 172.754 85.0391C172.144 82.1051 172.144 82.1051 171 80C167.306 80 165.222 81.2818 162 83ZM168 102C167.67 106.29 167.34 110.58 167 115C171.459 112.849 171.459 112.849 174 109C174.537 106.01 174.812 103.031 175 100C172.573 100 170.302 101.233 168 102Z" fill="#C4C4C4"/>
<path d="M78.5586 276.867C79.6665 276.866 80.7745 276.865 81.916 276.863C83.0781 276.867 84.2402 276.871 85.4375 276.875C86.5957 276.871 87.7539 276.867 88.9472 276.863C90.6111 276.865 90.6111 276.865 92.3086 276.867C93.3275 276.868 94.3464 276.869 95.3962 276.871C98 277 98 277 101 278C102.125 284.75 102.125 284.75 101 287C98.1449 287.952 96.0906 288.19 93.1133 288.316C91.7066 288.379 91.7066 288.379 90.2715 288.443C89.295 288.483 88.3185 288.522 87.3125 288.563C85.8304 288.627 85.8304 288.627 84.3183 288.693C81.879 288.799 79.4396 288.902 77 289C77.99 290.485 77.99 290.485 79 292C79.1992 294.45 79.2826 296.786 79.2741 299.237C79.282 300.35 79.282 300.35 79.29 301.486C79.305 303.98 79.3057 306.474 79.3064 308.968C79.314 310.754 79.3224 312.539 79.3316 314.325C79.3536 319.18 79.3623 324.035 79.3674 328.891C79.3711 331.923 79.3773 334.955 79.3844 337.987C79.4089 348.562 79.422 359.136 79.4255 369.71C79.4291 379.573 79.459 389.436 79.5009 399.299C79.5356 407.762 79.5511 416.225 79.5518 424.688C79.5525 429.744 79.5613 434.801 79.5898 439.857C79.6159 444.613 79.6182 449.368 79.6021 454.124C79.6003 455.87 79.607 457.616 79.6229 459.362C79.6433 461.745 79.6329 464.126 79.6147 466.51C79.6279 467.201 79.6411 467.893 79.6547 468.605C79.5883 472.414 79.0649 473.921 76.6178 476.91C73.851 479.119 72.5133 479.912 69 480C66.1347 479.25 64.4727 478.472 62.3762 476.378C60.5132 473.159 60.5778 470.26 60.6056 466.643C60.5995 465.9 60.5934 465.157 60.5871 464.391C60.5704 461.9 60.5753 459.41 60.58 456.918C60.5727 455.133 60.5641 453.347 60.5544 451.562C60.5321 446.71 60.5292 441.859 60.5311 437.008C60.5312 432.96 60.5227 428.911 60.5144 424.863C60.4951 415.313 60.4922 405.764 60.499 396.214C60.5056 386.359 60.4828 376.503 60.4457 366.648C60.415 358.189 60.4036 349.731 60.4075 341.272C60.4096 336.218 60.4041 331.165 60.3796 326.112C60.3574 321.36 60.3592 316.609 60.3796 311.857C60.383 310.113 60.3778 308.369 60.3636 306.625C60.3454 304.244 60.3581 301.865 60.3785 299.484C60.366 298.793 60.3535 298.102 60.3406 297.39C60.4108 293.574 60.9381 292.075 63.3943 289.083C65.7658 287.187 67.0338 286.33 70 286C69.7937 285.423 69.5875 284.845 69.375 284.25C68.9076 281.446 69.4628 280.346 71 278C73.6316 276.684 75.6147 276.87 78.5586 276.867Z" fill="#C4C4C4"/>
<path d="M109 287C111.431 288.87 112.641 290.282 114 293C114.106 294.868 114.148 296.74 114.161 298.611C114.171 299.805 114.181 300.999 114.191 302.229C114.197 303.546 114.203 304.863 114.209 306.22C114.218 307.617 114.228 309.013 114.238 310.41C114.27 315.01 114.29 319.611 114.308 324.211C114.313 325.389 114.313 325.389 114.318 326.59C114.349 334.008 114.376 341.427 114.393 348.845C114.415 358.298 114.456 367.75 114.526 377.202C114.574 383.865 114.598 390.527 114.605 397.19C114.61 401.158 114.625 405.126 114.665 409.093C114.955 439.134 114.955 439.134 109.291 453.83C106.983 460.17 107.515 467.129 109 473.625C109.186 474.463 109.371 475.301 109.562 476.164C109.707 476.77 109.851 477.376 110 478C104.759 480.194 104.759 480.194 101.312 479.313C98.5024 477.718 96.5082 476.479 95.4305 473.344C94.8464 470.165 94.8669 467.111 94.8594 463.878C94.8565 463.16 94.8535 462.442 94.8504 461.703C94.8418 459.297 94.8403 456.891 94.8388 454.485C94.8341 452.76 94.8291 451.035 94.8237 449.311C94.8106 444.625 94.8041 439.939 94.7997 435.253C94.7968 432.325 94.7927 429.398 94.7882 426.47C94.7745 417.311 94.7649 408.152 94.761 398.993C94.7565 388.419 94.739 377.846 94.71 367.272C94.6884 359.099 94.6783 350.925 94.677 342.752C94.6759 337.87 94.67 332.989 94.6521 328.107C94.6357 323.515 94.6335 318.924 94.6423 314.332C94.643 312.648 94.6387 310.964 94.6288 309.28C94.6161 306.978 94.622 304.678 94.6324 302.377C94.6309 301.089 94.6295 299.802 94.628 298.476C95.0377 294.647 95.9665 292.255 97.9999 289C101.668 286.555 104.734 286.278 109 287Z" fill="#C4C4C4"/>
<path d="M116.719 276.602C117.816 276.598 118.913 276.594 120.043 276.59C121.184 276.601 122.325 276.613 123.5 276.625C125.211 276.608 125.211 276.608 126.957 276.59C128.054 276.594 129.151 276.598 130.281 276.602C131.282 276.605 132.283 276.608 133.314 276.612C136.4 277.058 137.793 277.824 140 280C140.312 282.625 140.312 282.625 140 285C139.67 285.33 139.34 285.66 139 286C140.093 286.392 141.186 286.784 142.312 287.188C146.062 288.532 147.221 290.488 149 294C149.408 296.774 149.408 296.774 149.452 299.825C149.474 300.974 149.496 302.122 149.519 303.305C149.529 305.156 149.529 305.156 149.539 307.043C149.551 308.322 149.564 309.601 149.577 310.918C149.599 313.624 149.609 316.329 149.611 319.035C149.616 322.478 149.667 325.918 149.73 329.36C149.781 332.671 149.782 335.982 149.789 339.293C149.816 340.516 149.842 341.739 149.87 343C149.801 351.756 147.524 356.34 142 363C140.931 364.761 139.889 366.539 138.91 368.352C138.436 369.222 137.963 370.092 137.475 370.988C137.009 371.858 136.543 372.729 136.062 373.625C135.569 374.534 135.076 375.443 134.568 376.379C133.373 378.583 132.184 380.79 131 383C130.67 383 130.34 383 130 383C129.93 371.482 129.877 359.965 129.845 348.447C129.829 343.098 129.808 337.75 129.774 332.402C129.741 327.241 129.723 322.08 129.715 316.919C129.71 314.949 129.699 312.98 129.683 311.011C129.661 308.253 129.658 305.496 129.659 302.738C129.649 301.923 129.638 301.109 129.627 300.27C129.652 295.658 130.194 292.708 133 289C132.032 288.978 132.032 288.978 131.044 288.956C128.112 288.881 125.181 288.785 122.25 288.688C120.726 288.654 120.726 288.654 119.172 288.619C118.192 288.584 117.212 288.548 116.203 288.512C115.302 288.486 114.402 288.459 113.474 288.432C110.552 287.922 109.136 287.034 107 285C106.5 282.5 106.5 282.5 107 280C110.114 276.965 112.449 276.616 116.719 276.602Z" fill="#C4C4C4"/>
<path d="M426 124C426.33 124 426.66 124 427 124C428.456 155.223 417.439 181.516 396.938 204.938C378.651 224.775 353.398 239.33 328 248C327.01 248 326.02 248 325 248C324.505 245.03 324.505 245.03 324 242C324.526 241.815 325.052 241.631 325.594 241.44C350.503 232.588 372.286 220.687 392 203C392.825 202.26 393.65 201.52 394.5 200.758C415.858 180.512 424.047 152.525 426 124Z" fill="#C4C4C4"/>
</g>
<defs>
<clipPath id="clip0_138_8">
<rect width="512" height="512" fill="white"/>
</clipPath>
</defs>
</svg>
