<svg width="513" height="512" viewBox="0 0 513 512" fill="none" xmlns="http://www.w3.org/2000/svg">
<path d="M96.1363 90.8361C104.481 95.812 109.67 102.7 112.246 112.094C113.262 123.395 112.586 133.08 105.121 142.156C103.493 143.948 102.418 145.008 100.246 146.094C101.674 149.343 103.416 151.521 105.91 154.033C106.662 154.794 107.413 155.555 108.188 156.339C109.409 157.56 109.409 157.56 110.656 158.805C111.918 160.073 111.918 160.073 113.206 161.368C114.989 163.157 116.776 164.944 118.565 166.729C121.282 169.443 123.986 172.17 126.689 174.899C128.427 176.639 130.166 178.379 131.906 180.117C132.706 180.927 133.506 181.736 134.331 182.571C145.284 193.435 156.531 199.382 172.156 200.125C184.699 199.998 195.973 195.148 204.945 186.477C210.919 180.289 216.39 173.757 221.8 167.074C223.577 164.909 225.368 162.769 227.191 160.645C227.688 160.064 228.185 159.484 228.698 158.886C229.667 157.757 230.64 156.631 231.616 155.509C233.906 152.84 235.873 150.348 237.246 147.094C236.359 146.434 235.472 145.774 234.558 145.094C229.182 140.608 226.077 134.794 224.246 128.094C223.247 116.994 223.896 107.359 230.996 98.2814C236.653 92.2236 243.7 88.5028 251.98 87.7579C262.709 87.5165 271.553 88.7684 279.714 96.3907C287.108 104.614 288.828 113.328 288.558 124.106C287.968 134.547 282.337 141.044 275.246 148.094C275.935 148.905 276.625 149.716 277.335 150.551C281.848 155.865 286.345 161.187 290.746 166.594C292.245 168.428 293.745 170.261 295.246 172.094C295.903 172.899 295.903 172.899 296.574 173.721C306.727 186.11 316.834 196.911 333.437 199.613C346.517 200.75 359.439 198.648 369.746 189.995C378.102 182.276 386.207 174.318 394.25 166.275C396.528 163.999 398.815 161.731 401.101 159.463C402.551 158.016 404 156.569 405.449 155.121C406.133 154.444 406.817 153.767 407.522 153.07C408.144 152.445 408.766 151.82 409.407 151.176C409.957 150.627 410.507 150.078 411.074 149.513C412.458 148.144 412.458 148.144 412.246 146.094C411.163 145.29 411.163 145.29 410.058 144.469C403.95 139.311 400.624 132.298 399.91 124.36C399.668 113.63 400.92 104.786 408.543 96.6251C416.766 89.2315 425.48 87.512 436.257 87.7814C444.643 88.2557 451.649 91.8686 457.246 98.0939C464.163 107.292 465.389 116.878 464.246 128.094C462.434 136.052 458.092 141.782 451.996 147.031C450.246 148.094 450.246 148.094 448.246 148.094C448.418 148.785 448.591 149.475 448.769 150.187C449.308 153.474 449.156 156.288 448.879 159.608C448.828 160.249 448.776 160.889 448.723 161.549C448.549 163.688 448.365 165.825 448.182 167.963C448.055 169.499 447.928 171.035 447.803 172.571C447.46 176.739 447.108 180.906 446.755 185.073C446.386 189.438 446.025 193.803 445.663 198.168C445.054 205.5 444.44 212.832 443.822 220.164C443.03 229.565 442.246 238.966 441.465 248.367C440.792 256.459 440.116 264.551 439.439 272.643C439.222 275.239 439.006 277.835 438.789 280.431C438.448 284.517 438.105 288.603 437.76 292.689C437.634 294.185 437.509 295.682 437.384 297.179C437.213 299.228 437.04 301.277 436.866 303.325C436.722 305.043 436.722 305.043 436.574 306.795C436.23 310.246 435.76 313.664 435.246 317.094C431.537 316.63 428.118 316.06 424.496 315.094C415.36 312.741 405.783 312.948 396.414 312.96C395.166 312.958 393.918 312.956 392.633 312.953C389.2 312.948 385.766 312.947 382.333 312.948C378.619 312.949 374.904 312.943 371.19 312.938C363.923 312.93 356.657 312.927 349.391 312.927C343.48 312.926 337.568 312.924 331.657 312.921C314.87 312.912 298.083 312.908 281.296 312.908C279.94 312.909 279.94 312.909 278.557 312.909C277.2 312.909 277.2 312.909 275.816 312.909C261.161 312.909 246.507 312.9 231.852 312.885C216.777 312.871 201.703 312.864 186.628 312.865C178.176 312.865 169.723 312.863 161.271 312.852C154.074 312.843 146.876 312.841 139.679 312.847C136.013 312.851 132.348 312.851 128.682 312.842C106.113 312.12 106.113 312.12 84.0883 316.163C81.2456 317.094 81.2456 317.094 77.2456 317.094C75.2353 296.828 73.3801 276.554 71.6873 256.259C71.5079 254.108 71.328 251.958 71.1481 249.807C70.5817 243.038 70.0171 236.268 69.455 229.498C68.8116 221.749 68.162 214.001 67.5075 206.252C66.9964 200.197 66.4906 194.141 65.9889 188.085C65.6911 184.492 65.3911 180.899 65.0854 177.306C64.7472 173.331 64.4202 169.355 64.0943 165.379C63.9925 164.202 63.8908 163.025 63.786 161.812C63.6991 160.731 63.6123 159.65 63.5228 158.536C63.4447 157.6 63.3665 156.664 63.286 155.7C63.2444 153.014 63.6216 150.699 64.2456 148.094C63.6888 147.846 63.1319 147.599 62.5581 147.344C55.7313 143.654 51.9868 138.401 49.1245 131.32C46.7712 122.681 47.0938 112.318 50.9878 104.203C60.1884 88.7738 79.8209 83.0069 96.1363 90.8361ZM229.641 252.546C225.551 257.266 224.89 260.497 224.968 266.555C225.379 270.318 226.728 272.312 229.246 275.094C236.79 281.033 244.617 280.309 253.8 280.334C255.975 280.344 258.149 280.375 260.324 280.406C272.386 280.78 272.386 280.78 282.85 275.641C286.941 270.922 287.602 267.691 287.523 261.633C287.112 257.869 285.763 255.876 283.246 253.094C275.701 247.155 267.875 247.878 258.691 247.854C256.516 247.844 254.342 247.813 252.168 247.781C240.105 247.408 240.105 247.408 229.641 252.546Z" fill="#C4C4C4"/>
<path d="M108.719 343.586C110.035 343.579 111.352 343.573 112.708 343.567C116.334 343.55 119.958 343.558 123.584 343.571C127.505 343.58 131.426 343.566 135.347 343.555C143.017 343.537 150.686 343.541 158.356 343.552C164.592 343.561 170.828 343.563 177.063 343.558C177.952 343.558 178.841 343.557 179.757 343.556C181.564 343.555 183.37 343.554 185.176 343.553C202.096 343.541 219.015 343.554 235.935 343.576C250.439 343.594 264.943 343.591 279.447 343.572C296.308 343.551 313.168 343.542 330.029 343.555C331.829 343.556 333.628 343.557 335.428 343.558C336.313 343.559 337.198 343.56 338.11 343.56C344.335 343.564 350.56 343.558 356.786 343.548C364.377 343.537 371.967 343.54 379.558 343.562C383.428 343.572 387.298 343.576 391.167 343.563C395.369 343.549 399.571 343.566 403.772 343.586C405.592 343.572 405.592 343.572 407.449 343.559C419.269 343.667 428.628 346.867 437.246 355.094C446.054 364.321 448.871 373.944 448.716 386.458C448.248 398.286 443.697 406.935 435.179 415.066C425.713 423.042 415.856 424.69 403.772 424.602C401.798 424.611 401.798 424.611 399.783 424.62C396.157 424.637 392.533 424.629 388.907 424.616C384.986 424.607 381.065 424.621 377.144 424.632C369.474 424.65 361.805 424.646 354.135 424.635C347.899 424.626 341.663 424.624 335.428 424.629C334.539 424.629 333.65 424.63 332.734 424.631C330.927 424.632 329.121 424.633 327.315 424.635C310.395 424.646 293.476 424.633 276.556 424.611C262.052 424.594 247.548 424.597 233.044 424.615C216.183 424.636 199.323 424.645 182.462 424.633C180.662 424.631 178.863 424.63 177.063 424.629C175.736 424.628 175.736 424.628 174.381 424.627C168.156 424.624 161.931 424.629 155.705 424.639C148.114 424.65 140.524 424.647 132.933 424.626C129.063 424.615 125.193 424.611 121.324 424.624C117.122 424.638 112.921 424.621 108.719 424.602C106.899 424.615 106.899 424.615 105.042 424.629C93.2217 424.52 83.8635 421.321 75.2455 413.094C66.437 403.866 63.6198 394.243 63.7748 381.729C64.243 369.902 68.7939 361.252 77.3119 353.121C86.7781 345.145 96.6346 343.497 108.719 343.586Z" fill="#C4C4C4"/>
<path d="M448.136 90.8359C456.481 95.8118 461.67 102.699 464.246 112.094C465.253 123.296 464.623 133.006 457.246 142.031C451.27 148.64 443.734 151.369 434.992 152.523C425.691 152.904 417.305 150.404 409.808 144.781C402.349 136.958 399.833 128.907 399.88 118.211C400.092 109.725 402.707 102.873 408.543 96.625C419.14 87.0974 435.183 84.62 448.136 90.8359Z" fill="#C4C4C4"/>
<path d="M96.1361 90.8359C104.481 95.8118 109.67 102.699 112.246 112.094C113.244 123.193 112.527 132.724 105.621 141.906C100.121 147.825 91.1547 151.488 83.2377 152.465C73.7386 152.667 65.5082 150.556 57.808 144.781C50.3491 136.958 47.8333 128.907 47.8798 118.211C48.0919 109.725 50.7068 102.873 56.5424 96.625C67.1394 87.0974 83.1827 84.62 96.1361 90.8359Z" fill="#C4C4C4"/>
<path d="M272.136 90.8359C280.481 95.8118 285.67 102.699 288.246 112.094C289.244 123.193 288.527 132.724 281.621 141.906C276.121 147.825 267.155 151.488 259.238 152.465C249.739 152.667 241.508 150.556 233.808 144.781C226.349 136.958 223.833 128.907 223.88 118.211C224.092 109.725 226.707 102.873 232.542 96.625C243.139 87.0974 259.183 84.62 272.136 90.8359Z" fill="#C4C4C4"/>
</svg>
