<svg width="82" height="95" viewBox="0 0 82 95" fill="none" xmlns="http://www.w3.org/2000/svg">
<path d="M17.6274 0.162236C16.2781 0.587372 15.1136 1.62249 14.5776 2.89789C14.4112 3.30455 14.3003 4.13633 14.3003 5.09751V6.65018H10.7883C8.86595 6.65018 6.85117 6.7426 6.31513 6.85351C3.26525 7.50045 1.06563 9.94036 0.843819 12.8978C0.603525 16.4283 3.15434 23.6556 6.31513 28.3691C9.23563 32.7313 13.45 36.7609 17.535 39.1269C18.755 39.8293 18.7735 39.8293 19.7531 41.8995C22.803 48.332 26.6477 53.0639 31.2133 56.0399C32.119 56.6314 33.2281 57.2413 33.6532 57.4077C34.5035 57.7404 34.5405 57.8144 34.4665 59.5149C34.3556 61.696 33.4314 63.8217 31.8418 65.5223C30.5848 66.8531 29.291 67.6664 27.3316 68.3503C25.0211 69.1452 25.132 68.8494 25.0581 75.3373L25.0026 80.7717H22.3409C20.1043 80.7717 19.5128 80.8271 18.6441 81.1599C17.2947 81.6589 15.7605 83.0822 15.0951 84.4316C14.596 85.4667 14.5776 85.5591 14.5221 89.219C14.4667 92.3428 14.5036 93.0267 14.7439 93.5073C15.3724 94.7088 13.5794 94.6348 41.3796 94.6348C63.4127 94.6348 66.7029 94.5979 67.165 94.3576C68.2186 93.803 68.2741 93.5997 68.2741 89.6071C68.2741 85.097 68.0892 84.4685 66.3517 82.6941C64.7251 81.049 63.8748 80.7717 60.4183 80.7717H57.7381V75.4298C57.7381 68.9418 57.8305 69.1821 55.2982 68.2764C53.3019 67.574 52.1004 66.7977 50.899 65.4853C49.2539 63.6923 48.3112 61.3448 48.3112 59.0528V57.7404L49.1984 57.3153C54.4664 54.7645 59.3277 49.2562 62.8212 41.8995C63.7085 40.0326 63.8933 39.7923 64.6142 39.3856C68.5513 37.2045 72.6548 33.4337 75.7971 29.053C79.1058 24.4504 81.9893 16.5947 81.7305 12.8978C81.5087 9.94036 79.3091 7.50045 76.2592 6.85351C75.7232 6.7426 73.7084 6.65018 71.7861 6.65018H68.2741V5.24538C68.2741 4.46905 68.1817 3.50787 68.0523 3.1197C67.775 2.17701 66.7769 1.01251 65.7972 0.494951L65.0393 0.0882996L41.5644 0.0513312C28.6625 0.0328471 17.8862 0.0882996 17.6274 0.162236ZM64.0227 10.31C64.0227 16.8904 63.8194 20.8645 63.2649 24.6722C61.7676 35.1343 57.9045 44.0252 52.4701 49.441C49.8084 52.1027 47.3685 53.6185 44.4849 54.3393C42.7659 54.783 40.0487 54.8199 38.3667 54.4318C29.7531 52.3985 22.193 41.308 19.6607 26.9828C18.8659 22.3802 18.718 20.4394 18.6071 12.3248L18.4962 4.43208H41.2687H64.0227V10.31ZM14.3557 16.4838C14.4297 20.4024 14.5591 22.6205 14.8363 24.4874C15.1875 26.9828 15.9639 31.0308 16.3336 32.3247C16.426 32.6759 16.4814 33.0086 16.426 33.0456C16.2411 33.2304 11.5277 28.2582 10.4741 26.7425C8.32991 23.7111 6.44452 19.5152 5.57577 15.9107C4.9473 13.2121 5.13215 12.2324 6.40755 11.4561C6.9436 11.1233 7.35025 11.0864 10.6219 11.0864H14.2448L14.3557 16.4838ZM76.0374 11.3636C77.3868 12.066 77.6271 13.249 76.9801 15.9847C75.908 20.4209 73.6899 24.8756 70.714 28.5169C69.7158 29.7369 66.2593 33.1565 66.1299 33.0271C66.0929 32.9901 66.1484 32.6759 66.2408 32.3247C66.6105 31.0308 67.3868 26.9828 67.738 24.4874C68.0153 22.6205 68.1447 20.4024 68.2186 16.4838L68.3295 11.0864H71.9155C74.725 11.0864 75.6123 11.1418 76.0374 11.3636ZM43.9489 60.2728C44.1522 62.5648 45.3167 65.4853 46.74 67.3522C47.1097 67.8328 47.3685 68.2764 47.3315 68.3134C47.2945 68.3503 44.5774 68.3688 41.3057 68.3503L35.3353 68.2949L35.9822 67.4631C37.5349 65.4298 38.6255 62.7127 38.8103 60.4021L38.9397 59.0528H41.3796H43.838L43.9489 60.2728ZM53.3019 76.7976V80.7717H41.3796H29.4573V76.7976V72.8235H41.3796H53.3019V76.7976ZM62.7288 85.3558C63.69 85.8364 64.0227 86.6497 64.0227 88.572V90.1986H41.3611H18.6995L18.7735 88.3872C18.8474 86.3354 19.1062 85.7255 20.0858 85.3003C20.5849 85.0785 24.1893 85.0415 41.3796 85.0231C60.7325 85.0231 62.1188 85.0415 62.7288 85.3558Z" fill="#E20001"/>
</svg>
