<svg width="82" height="95" viewBox="0 0 82 95" fill="none" xmlns="http://www.w3.org/2000/svg">
<path d="M17.4771 0.422146C16.1277 0.847282 14.9632 1.8824 14.4272 3.1578C14.2608 3.56445 14.1499 4.39624 14.1499 5.35742V6.91008H10.6379C8.71556 6.91008 6.70078 7.00251 6.16474 7.11342C3.11485 7.76036 0.915239 10.2003 0.693429 13.1577C0.453134 16.6882 3.00395 23.9155 6.16474 28.629C9.08524 32.9912 13.2996 37.0208 17.3846 39.3868C18.6046 40.0892 18.6231 40.0892 19.6027 42.1594C22.6526 48.5919 26.4973 53.3238 31.0629 56.2998C31.9686 56.8913 33.0777 57.5013 33.5028 57.6676C34.3531 58.0003 34.3901 58.0743 34.3161 59.7748C34.2052 61.9559 33.281 64.0816 31.6914 65.7822C30.4345 67.113 29.1406 67.9263 27.1812 68.6102C24.8707 69.4051 24.9816 69.1093 24.9077 75.5973L24.8522 81.0316H22.1905C19.9539 81.0316 19.3624 81.0871 18.4937 81.4198C17.1443 81.9189 15.6102 83.3421 14.9447 84.6915C14.4456 85.7266 14.4272 85.819 14.3717 89.4789C14.3163 92.6027 14.3532 93.2866 14.5935 93.7672C15.222 94.9687 13.429 94.8947 41.2292 94.8947C63.2623 94.8947 66.5525 94.8578 67.0146 94.6175C68.0682 94.063 68.1237 93.8596 68.1237 89.867C68.1237 85.3569 67.9388 84.7284 66.2013 82.954C64.5747 81.3089 63.7244 81.0316 60.2679 81.0316H57.5877V75.6897C57.5877 69.2017 57.6801 69.442 55.1478 68.5363C53.1515 67.8339 51.95 67.0576 50.7486 65.7452C49.1035 63.9522 48.1608 61.6047 48.1608 59.3127V58.0003L49.048 57.5752C54.316 55.0244 59.1773 49.5161 62.6708 42.1594C63.5581 40.2925 63.7429 40.0522 64.4638 39.6456C68.4009 37.4644 72.5044 33.6936 75.6467 29.3129C78.9554 24.7103 81.8389 16.8546 81.5801 13.1577C81.3583 10.2003 79.1587 7.76036 76.1088 7.11342C75.5728 7.00251 73.558 6.91008 71.6357 6.91008H68.1237V5.50529C68.1237 4.72896 68.0313 3.76778 67.9019 3.37961C67.6246 2.43692 66.6265 1.27241 65.6468 0.754856L64.8889 0.34821L41.4141 0.311238C28.5121 0.292753 17.7358 0.348209 17.4771 0.422146ZM63.8723 10.57C63.8723 17.1503 63.669 21.1244 63.1145 24.9322C61.6172 35.3942 57.7541 44.2851 52.3197 49.7009C49.658 52.3627 47.2181 53.8784 44.3345 54.5992C42.6155 55.0429 39.8983 55.0798 38.2163 54.6917C29.6027 52.6584 22.0426 41.5679 19.5103 27.2427C18.7155 22.6401 18.5676 20.6993 18.4567 12.5847L18.3458 4.69199H41.1183H63.8723V10.57ZM14.2054 16.7437C14.2793 20.6623 14.4087 22.8804 14.6859 24.7473C15.0371 27.2427 15.8135 31.2907 16.1832 32.5846C16.2756 32.9358 16.331 33.2685 16.2756 33.3055C16.0907 33.4903 11.3773 28.5181 10.3237 27.0024C8.17952 23.971 6.29413 19.7751 5.42538 16.1707C4.79691 13.472 4.98176 12.4923 6.25716 11.716C6.7932 11.3833 7.19986 11.3463 10.4716 11.3463H14.0945L14.2054 16.7437ZM75.887 11.6235C77.2364 12.3259 77.4767 13.5089 76.8297 16.2446C75.7576 20.6808 73.5395 25.1355 70.5636 28.7769C69.5654 29.9968 66.1089 33.4164 65.9795 33.287C65.9425 33.25 65.998 32.9358 66.0904 32.5846C66.4601 31.2907 67.2364 27.2427 67.5876 24.7473C67.8649 22.8804 67.9943 20.6623 68.0682 16.7437L68.1791 11.3463H71.7651C74.5746 11.3463 75.4619 11.4017 75.887 11.6235ZM43.7985 60.5327C44.0018 62.8247 45.1663 65.7452 46.5896 67.6121C46.9593 68.0927 47.2181 68.5363 47.1811 68.5733C47.1441 68.6102 44.427 68.6287 41.1553 68.6102L35.1849 68.5548L35.8318 67.723C37.3845 65.6897 38.4751 62.9726 38.6599 60.6621L38.7893 59.3127H41.2292H43.6876L43.7985 60.5327ZM53.1515 77.0575V81.0316H41.2292H29.3069V77.0575V73.0834H41.2292H53.1515V77.0575ZM62.5784 85.6157C63.5396 86.0963 63.8723 86.9096 63.8723 88.8319V90.4585H41.2107H18.5491L18.6231 88.6471C18.697 86.5953 18.9558 85.9854 19.9354 85.5602C20.4345 85.3384 24.0389 85.3015 41.2292 85.283C60.5821 85.283 61.9684 85.3015 62.5784 85.6157Z" fill="#239B56"/>
</svg>
