<svg width="449" height="513" viewBox="0 0 449 513" fill="none" xmlns="http://www.w3.org/2000/svg">
<path d="M224.284 0.795898C206.584 0.795898 192.284 15.0959 192.284 32.7959V51.9959C119.284 66.7959 64.2838 131.396 64.2838 208.796V227.596C64.2838 274.596 46.9838 319.996 15.7838 355.196L8.38384 363.496C-0.0161629 372.896 -2.01616 386.396 3.08384 397.896C8.18384 409.396 19.6838 416.796 32.2838 416.796H416.284C428.884 416.796 440.284 409.396 445.484 397.896C450.684 386.396 448.584 372.896 440.184 363.496L432.784 355.196C401.584 319.996 384.284 274.696 384.284 227.596V208.796C384.284 131.396 329.284 66.7959 256.284 51.9959V32.7959C256.284 15.0959 241.984 0.795898 224.284 0.795898ZM269.584 494.096C281.584 482.096 288.284 465.796 288.284 448.796H224.284H160.284C160.284 465.796 166.984 482.096 178.984 494.096C190.984 506.096 207.284 512.796 224.284 512.796C241.284 512.796 257.584 506.096 269.584 494.096Z" fill="white"/>
</svg>
