<svg width="75" height="101" viewBox="0 0 75 101" fill="none" xmlns="http://www.w3.org/2000/svg">
<path d="M20.6688 1.12529C12.0708 2.12555 4.622 8.23356 1.83402 16.5336C0.684782 19.9388 0.450677 23.046 0.876323 29.303C1.81274 43.6472 6.26073 61.5456 11.0918 70.4203L11.9218 71.9526V86.4459V100.918H34.5874H57.253V86.4884L57.2743 72.0803L59.1897 69.6329C66.979 59.6728 71.6824 50.5214 73.7468 41.3275C74.6406 37.369 74.9811 34.2405 75.0024 29.9415C75.0237 26.4937 74.9599 25.7489 74.6193 24.8337C74.0022 23.1524 72.8103 21.5563 71.4696 20.556C69.6819 19.2578 68.4262 18.8747 65.8723 18.8747L63.7228 18.896L63.2546 17.2147C62.2331 13.5541 59.9984 9.97871 56.9551 7.1056C53.3371 3.70044 48.9742 1.67863 43.9942 1.12529C41.568 0.84862 23.0099 0.84862 20.6688 1.12529ZM46.8247 6.36072C51.7409 8.04202 55.6994 11.5323 57.7638 16.0442C58.7002 18.066 59.1259 19.5344 59.36 21.7478C59.9984 27.5153 57.4658 38.4118 54.8481 41.2849L54.4012 41.7744L56.0612 43.4131L57.6999 45.0519L58.5512 44.0942C60.8923 41.4339 63.1908 34.581 63.8718 28.3453C64.4039 23.4078 64.2762 23.8122 65.1913 23.5994C66.9364 23.1737 68.5965 23.8335 69.8947 25.4296C70.5331 26.2384 70.5544 26.3235 70.6183 28.7284C70.8098 34.8577 69.2988 42.0936 66.3831 48.9465C64.2762 53.9691 60.9136 59.5451 56.2527 65.7595L53.8266 68.9944H34.6087H15.4121L14.3054 66.6959C9.1764 55.9697 5.11149 37.3903 5.11149 24.7486C5.11149 21.088 5.32431 19.6409 6.19689 17.2785C7.94203 12.5539 11.9644 8.53151 16.7742 6.72252C19.6898 5.61584 19.8601 5.59456 32.7784 5.63713L44.8029 5.67969L46.8247 6.36072ZM52.7837 75.8047V77.9117L42.8449 77.9755C33.0977 78.0394 32.8636 78.0394 31.8846 78.5076C29.6925 79.5291 28.2666 81.4658 27.8197 83.9558C27.3514 86.7438 28.9689 89.7446 31.6717 91.0641L32.8848 91.66L42.8449 91.7239L52.7837 91.7877V94.0011V96.2357H34.5874H16.3911V84.9561V73.6765H34.5874H52.7837V75.8047ZM52.7837 84.8497V87.2971H43.6324C33.8 87.2971 33.4382 87.2546 32.6933 86.2117C32.2038 85.5094 32.2464 84.0835 32.7997 83.3812C33.0338 83.0833 33.5446 82.7427 33.9064 82.6363C34.2895 82.5299 38.6736 82.4235 43.6962 82.4235L52.7837 82.4022V84.8497Z" fill="#193531" fill-opacity="0.44"/>
</svg>
