<svg width="153" height="110" viewBox="0 0 153 110" fill="none" xmlns="http://www.w3.org/2000/svg">
<path d="M50.5576 6.89564L93.8589 31.8956V81.8956L50.5576 106.896L7.25635 81.8956L7.25635 31.8956L50.5576 6.89564Z" fill="url(#paint0_radial_54_32)"/>
<path d="M9.25635 33.0503L50.5576 9.20504L91.8589 33.0503V80.7409L50.5576 104.586L9.25635 80.7409L9.25635 33.0503Z" stroke="#193531" stroke-opacity="0.44" stroke-width="4"/>
<rect x="66.8711" y="32.3077" width="46.2624" height="50" fill="white"/>
<path d="M84.9515 57.6357L81.4969 78.6357H76.1333L81.9515 43.7266H87.1333L86.2242 49.1812H86.6788C87.7697 47.4084 89.2469 45.9842 91.1106 44.9084C92.9742 43.8175 95.2242 43.2721 97.8606 43.2721C100.194 43.2721 102.164 43.7569 103.77 44.7266C105.391 45.6812 106.535 47.1357 107.201 49.0903C107.883 51.0297 107.982 53.4842 107.497 56.4539L103.77 78.6357H98.406L102.042 56.8175C102.497 54.0903 102.141 51.9539 100.974 50.4084C99.8227 48.863 97.9969 48.0903 95.4969 48.0903C93.7697 48.0903 92.1712 48.4615 90.7015 49.2039C89.2469 49.9463 88.0121 51.0297 86.9969 52.4539C85.9969 53.8781 85.3151 55.6054 84.9515 57.6357ZM126.707 79.363C123.783 79.363 121.328 78.6281 119.344 77.1584C117.359 75.6736 115.957 73.5827 115.139 70.8857C114.336 68.1736 114.237 64.9691 114.844 61.2721C115.465 57.6054 116.624 54.4236 118.321 51.7266C120.033 49.0297 122.131 46.9463 124.616 45.4766C127.101 44.0069 129.813 43.2721 132.753 43.2721C135.025 43.2721 136.76 43.6509 137.957 44.4084C139.169 45.1509 140.048 45.9994 140.594 46.9539C141.139 47.8933 141.556 48.666 141.844 49.2721H142.298L145.162 32.0903H150.525L142.798 78.6357H137.616L138.525 73.2721H137.889C137.389 73.9084 136.692 74.7115 135.798 75.6812C134.904 76.6357 133.722 77.4918 132.253 78.2494C130.798 78.9918 128.95 79.363 126.707 79.363ZM128.025 74.5448C130.177 74.5448 132.101 73.9842 133.798 72.863C135.51 71.7266 136.934 70.1584 138.071 68.1584C139.207 66.1433 139.995 63.8175 140.434 61.1812C140.874 58.5751 140.859 56.2948 140.389 54.3403C139.919 52.3706 139.018 50.8403 137.684 49.7494C136.351 48.6433 134.586 48.0903 132.389 48.0903C130.131 48.0903 128.169 48.6736 126.503 49.8403C124.836 50.9918 123.48 52.56 122.434 54.5448C121.389 56.5145 120.662 58.7266 120.253 61.1812C119.844 63.666 119.836 65.9236 120.23 67.9539C120.624 69.9691 121.457 71.5751 122.73 72.7721C124.018 73.9539 125.783 74.5448 128.025 74.5448Z" fill="#193531" fill-opacity="0.44"/>
<path d="M25.6471 87.6357L26.6698 81.8829L52.1101 58.2323C55.0931 55.4624 57.5753 53.0441 59.5569 50.9773C61.5597 48.9106 63.1151 46.9717 64.2231 45.1606C65.3523 43.3495 66.0874 41.4425 66.4283 39.4397C66.8118 37.1386 66.6094 35.1464 65.8211 33.4631C65.0327 31.7799 63.7863 30.4802 62.0817 29.564C60.3772 28.6478 58.3317 28.1897 55.9454 28.1897C53.4312 28.1897 51.1407 28.7117 49.0739 29.7557C47.0071 30.7785 45.2919 32.2273 43.9283 34.1023C42.5647 35.956 41.6698 38.1187 41.2437 40.5903H33.701C34.3402 36.755 35.7998 33.3886 38.0796 30.4908C40.3807 27.5931 43.2039 25.3346 46.5491 23.7153C49.9155 22.0959 53.5164 21.2863 57.3516 21.2863C61.1868 21.2863 64.4361 22.0959 67.0995 23.7153C69.7628 25.3346 71.6911 27.5185 72.8843 30.2671C74.0775 33.0157 74.3971 36.0732 73.8431 39.4397C73.4169 41.8687 72.5753 44.2231 71.3182 46.5029C70.0611 48.7827 68.1329 51.3289 65.5334 54.1414C62.9553 56.9326 59.461 60.3417 55.0505 64.3687L37.7919 80.0931L37.6641 80.6045H68.0902L66.9397 87.6357H25.6471Z" fill="#193531" fill-opacity="0.44"/>
<defs>
<radialGradient id="paint0_radial_54_32" cx="0" cy="0" r="1" gradientUnits="userSpaceOnUse" gradientTransform="translate(50.5576 56.8956) rotate(90) scale(50)">
<stop stop-color="white"/>
<stop offset="1" stop-color="white" stop-opacity="0"/>
</radialGradient>
</defs>
</svg>
