<svg width="128" height="99" viewBox="0 0 128 99" fill="none" xmlns="http://www.w3.org/2000/svg">
<path d="M19.8635 2.14948C15.7328 4.86913 7.11201 11.2577 6.59887 11.9761C6.06007 12.6945 6.11138 13.4642 6.77846 14.3622C7.13766 14.8497 7.49686 14.8754 13.9624 14.9523L20.7872 15.0293V19.3653V23.7014L18.9399 24.2402C12.5 26.1131 7.31726 28.3196 4.46933 30.4492C2.82729 31.6807 1.41615 33.2458 0.620784 34.7595C0.158958 35.6062 0.133301 36.6838 0.133301 59.1337V82.6098L0.749069 83.7644C1.72403 85.6117 2.3398 86.3045 4.23842 87.7926C11.4224 93.4371 27.6376 97.3113 49.7796 98.6455C55.2959 98.979 71.1775 98.979 76.7964 98.6455C95.9365 97.4909 109.663 94.7456 118.694 90.2813C122.569 88.3827 125.262 86.1762 126.443 83.9184L127.135 82.6098V59.1337V35.6575L126.571 34.6312C124.416 30.6288 118.669 27.2164 109.689 24.5994L106.866 23.7783L106.789 19.391L106.738 15.0036H113.281H119.849L120.465 14.3622C121.234 13.6182 121.311 12.4636 120.67 11.7195C120.157 11.1551 110.022 3.81719 107.046 1.89291C105.096 0.610064 104.506 0.430462 103.659 0.892288C102.761 1.37977 102.633 2.79091 102.633 12.9254V22.7777L101.812 22.6238C92.4472 20.9561 85.4428 20.0324 79.9266 19.7502C75.8215 19.5193 75.9497 19.5706 75.9497 18.2108V17.0562H78.3872C80.645 17.0562 80.9015 17.0049 81.466 16.4148L82.1074 15.799V8.84596V1.89291L81.466 1.27715L80.8502 0.635719H63.6344H46.4185L45.8028 1.27715L45.1613 1.89291V8.84596V15.799L45.8028 16.4148C46.3672 17.0049 46.6238 17.0562 48.8816 17.0562H51.319V18.2108C51.319 19.5962 51.6782 19.468 45.9567 19.8528C41.0562 20.1864 35.2577 20.9048 30.0237 21.8284C27.9711 22.1876 25.9442 22.5468 25.4824 22.6238L24.6614 22.7777L24.5844 12.1814L24.5075 1.61069L23.8917 1.1232C22.9424 0.353489 22.301 0.533092 19.8635 2.14948ZM78.0023 8.84596V12.9511H63.6344H49.2665V8.84596V4.74084H63.6344H78.0023V8.84596ZM20.4536 10.8215C20.3767 10.8729 19.0938 10.8729 17.5801 10.8472L14.8348 10.7702L17.6057 8.76899L20.4023 6.7934L20.4793 8.74333C20.5306 9.82093 20.505 10.7446 20.4536 10.8215ZM109.894 8.92294C111.254 9.8979 112.383 10.7446 112.383 10.7959C112.383 10.8472 111.125 10.8985 109.56 10.8985H106.738V8.8203C106.738 7.25523 106.815 6.81906 107.072 6.94734C107.226 7.04997 108.508 7.94797 109.894 8.92294ZM71.8446 18.1338V19.237H63.6344H55.4241V18.1338V17.0562H63.6344H71.8446V18.1338ZM73.5123 23.4705C89.0348 24.3171 102.915 26.6006 112.46 29.8847C118.13 31.8346 121.568 33.9642 122.645 36.1707C123.492 37.8897 123.21 38.839 121.388 40.6863C119.618 42.431 116.257 44.15 111.459 45.7407L108.355 46.767L104.916 45.9203C103.018 45.4585 99.9904 44.8427 98.1431 44.5349C96.3214 44.227 94.4741 43.9191 94.0636 43.8421C93.3708 43.6882 93.4735 43.5342 97.9891 39.0186C102.71 34.2721 102.967 33.8872 102.479 32.5787C102.223 31.9373 100.888 31.3472 100.093 31.5524C99.6825 31.655 97.2194 33.9129 93.73 37.3765L88.0598 43.0211L83.5955 42.6106C81.1581 42.3797 76.1293 42.0461 72.4347 41.8922L65.6869 41.5843V35.0931V28.5762L65.0455 27.9604C64.2245 27.1137 63.0443 27.1137 62.2232 27.9604L61.5818 28.5762V35.0931V41.5843L54.4748 41.8922C50.5493 42.0718 45.4949 42.3797 43.2627 42.6106L39.1833 42.9954L33.3591 37.2226C28.1764 32.0399 27.4837 31.4241 26.7396 31.4241C25.6107 31.4241 24.6357 32.3991 24.6357 33.5023C24.6357 34.2464 25.1745 34.8878 29.2797 39.0186C34.5393 44.3039 34.3854 43.6882 30.6651 44.2526C28.7409 44.5605 21.2234 46.1256 19.8122 46.5361C19.0682 46.767 18.4524 46.6387 15.8354 45.7664C11.2171 44.2783 7.70212 42.4823 5.90613 40.712C4.08448 38.9416 3.80225 37.9667 4.57196 36.222C7.24029 30.1669 29.1257 24.625 55.2959 23.3935C59.2983 23.1882 69.125 23.2395 73.5123 23.4705ZM8.7284 47.3315C27.5863 56.7989 75.9754 58.9797 105.584 51.6932C112.639 49.9485 118.207 47.8189 121.568 45.6124L123.159 44.5349V52.6168C123.159 58.8258 123.082 60.8784 122.799 61.5198C121.363 64.9322 113.614 68.3959 101.889 70.782C81.8765 74.9127 56.0656 75.6568 35.54 72.7062C25.9699 71.3464 16.5794 68.909 10.8836 66.3176C8.1896 65.1118 5.67521 63.2901 4.85419 61.9816L4.11014 60.827V52.6938V44.5349L5.46996 45.4585C6.18835 45.946 7.67646 46.7927 8.7284 47.3315ZM79.7983 46.4335C87.4441 47.0749 98.5279 48.5117 98.5279 48.8709C98.5279 49.2557 85.7251 50.8721 77.7457 51.4879C71.3828 51.9754 54.4748 51.8984 47.9836 51.3596C42.2878 50.8721 37.4642 50.3333 33.6157 49.7432C32.2815 49.538 30.6395 49.3071 29.9724 49.2044C29.2797 49.1275 28.7409 48.9735 28.7409 48.8709C28.7409 48.6656 34.7703 47.7676 40.6714 47.1006C44.4173 46.6644 48.8816 46.3308 55.2959 45.946C58.8622 45.7407 75.3853 46.0486 79.7983 46.4335ZM8.47183 69.7813C24.2252 77.658 60.1707 80.8139 90.7025 76.9653C104.84 75.1693 116.616 71.7826 121.901 67.9854L123.159 67.0874V74.143C123.159 80.7369 123.133 81.3013 122.645 82.225C119.951 87.5103 101.684 92.77 80.2601 94.4377L78.0023 94.5917V89.3063C78.0023 84.021 78.0023 83.9953 77.3609 83.3796L76.7451 82.7381H63.6344H50.5237L49.9079 83.3796C49.2665 83.9953 49.2665 84.021 49.2665 89.3063V94.5917L47.0343 94.4377C25.5594 92.77 7.31726 87.5103 4.59762 82.1993C4.16145 81.3013 4.11014 80.6343 4.11014 74.1687V67.113L5.46996 68.0367C6.18835 68.5242 7.54817 69.3195 8.47183 69.7813ZM73.8972 90.7688V94.72L71.4085 94.8739C68.15 95.1048 59.6062 95.1048 56.1169 94.8739L53.3716 94.72V90.7688V86.8433H63.6344H73.8972V90.7688Z" fill="#193531" fill-opacity="0.44"/>
</svg>
