<svg width="176" height="31" viewBox="0 0 176 31" fill="none" xmlns="http://www.w3.org/2000/svg">
<path d="M8.538 26.428C10.2607 26.428 11.5147 26.1367 12.3 25.554C13.0853 24.9713 13.478 24.148 13.478 23.084C13.478 22.4507 13.3387 21.906 13.06 21.45C12.8067 20.994 12.4267 20.5887 11.92 20.234C11.4387 19.854 10.8433 19.512 10.134 19.208C9.42467 18.8787 8.614 18.562 7.702 18.258C6.79 17.9287 5.90333 17.574 5.042 17.194C4.206 16.7887 3.45867 16.2947 2.8 15.712C2.16667 15.1293 1.64733 14.4327 1.242 13.622C0.862 12.8113 0.672 11.836 0.672 10.696C0.672 8.31466 1.49533 6.45266 3.142 5.11C4.78867 3.742 7.03067 3.058 9.868 3.058C11.5147 3.058 12.9713 3.248 14.238 3.628C15.53 3.98267 16.5433 4.37533 17.278 4.806L15.796 8.682C14.9347 8.20066 13.9847 7.83333 12.946 7.58C11.9327 7.32667 10.8813 7.2 9.792 7.2C8.5 7.2 7.48667 7.466 6.752 7.998C6.04267 8.53 5.688 9.27733 5.688 10.24C5.688 10.8227 5.802 11.3293 6.03 11.76C6.28333 12.1653 6.62533 12.5327 7.056 12.862C7.512 13.1913 8.03133 13.4953 8.614 13.774C9.222 14.0527 9.88067 14.3187 10.59 14.572C11.8313 15.028 12.9333 15.4967 13.896 15.978C14.884 16.434 15.7073 16.9913 16.366 17.65C17.05 18.2833 17.5693 19.0433 17.924 19.93C18.2787 20.7913 18.456 21.8427 18.456 23.084C18.456 25.4653 17.6073 27.3147 15.91 28.632C14.238 29.924 11.7807 30.57 8.538 30.57C7.44867 30.57 6.448 30.494 5.536 30.342C4.64933 30.2153 3.85133 30.0507 3.142 29.848C2.458 29.6453 1.86267 29.4427 1.356 29.24C0.849333 29.012 0.444 28.8093 0.14 28.632L1.546 24.718C2.23 25.098 3.15467 25.478 4.32 25.858C5.48533 26.238 6.89133 26.428 8.538 26.428ZM21.3455 20.158C21.3455 18.41 21.5988 16.8773 22.1055 15.56C22.6375 14.2427 23.3342 13.1533 24.1955 12.292C25.0568 11.4053 26.0448 10.7467 27.1595 10.316C28.2742 9.86 29.4142 9.632 30.5795 9.632C33.3155 9.632 35.4435 10.4807 36.9635 12.178C38.5088 13.8753 39.2815 16.4087 39.2815 19.778C39.2815 20.0313 39.2688 20.3227 39.2435 20.652C39.2435 20.956 39.2308 21.2347 39.2055 21.488H26.0955C26.2222 23.084 26.7795 24.3253 27.7675 25.212C28.7808 26.0733 30.2375 26.504 32.1375 26.504C33.2522 26.504 34.2655 26.4027 35.1775 26.2C36.1148 25.9973 36.8495 25.782 37.3815 25.554L37.9895 29.316C37.7362 29.4427 37.3815 29.582 36.9255 29.734C36.4948 29.8607 35.9882 29.9747 35.4055 30.076C34.8482 30.2027 34.2402 30.304 33.5815 30.38C32.9228 30.456 32.2515 30.494 31.5675 30.494C29.8195 30.494 28.2995 30.2407 27.0075 29.734C25.7155 29.202 24.6515 28.48 23.8155 27.568C22.9795 26.6307 22.3588 25.5413 21.9535 24.3C21.5482 23.0333 21.3455 21.6527 21.3455 20.158ZM34.6835 18.106C34.6835 17.4727 34.5948 16.8773 34.4175 16.32C34.2402 15.7373 33.9742 15.2433 33.6195 14.838C33.2902 14.4073 32.8722 14.078 32.3655 13.85C31.8842 13.5967 31.3015 13.47 30.6175 13.47C29.9082 13.47 29.2875 13.6093 28.7555 13.888C28.2235 14.1413 27.7675 14.4833 27.3875 14.914C27.0328 15.3447 26.7542 15.8387 26.5515 16.396C26.3488 16.9533 26.2095 17.5233 26.1335 18.106H34.6835ZM44.1565 10.772C45.0431 10.5187 46.1958 10.278 47.6145 10.05C49.0331 9.822 50.6038 9.708 52.3265 9.708C53.9478 9.708 55.3031 9.936 56.3925 10.392C57.4818 10.8227 58.3431 11.4433 58.9765 12.254C59.6351 13.0393 60.0911 14.002 60.3445 15.142C60.6231 16.2567 60.7625 17.4853 60.7625 18.828V30H56.1645V19.55C56.1645 18.486 56.0885 17.5867 55.9365 16.852C55.8098 16.092 55.5818 15.484 55.2525 15.028C54.9485 14.5467 54.5178 14.2047 53.9605 14.002C53.4285 13.774 52.7698 13.66 51.9845 13.66C51.4018 13.66 50.7938 13.698 50.1605 13.774C49.5271 13.85 49.0585 13.9133 48.7545 13.964V30H44.1565V10.772ZM66.157 4.882L70.755 4.122V10.126H77.823V13.964H70.755V22.058C70.755 23.654 71.0083 24.794 71.515 25.478C72.0217 26.162 72.883 26.504 74.099 26.504C74.935 26.504 75.6697 26.4153 76.303 26.238C76.9617 26.0607 77.481 25.896 77.861 25.744L78.621 29.392C78.089 29.62 77.3923 29.848 76.531 30.076C75.6697 30.3293 74.6563 30.456 73.491 30.456C72.0723 30.456 70.8817 30.266 69.919 29.886C68.9817 29.506 68.2343 28.9613 67.677 28.252C67.1197 27.5173 66.727 26.6433 66.499 25.63C66.271 24.5913 66.157 23.4133 66.157 22.096V4.882ZM82.2678 30V1.272L86.8658 0.511999V10.354C87.3725 10.1767 87.9551 10.0247 88.6138 9.898C89.2978 9.77133 89.9691 9.708 90.6278 9.708C92.2238 9.708 93.5411 9.936 94.5798 10.392C95.6438 10.8227 96.4925 11.4433 97.1258 12.254C97.7591 13.0393 98.2025 13.9893 98.4558 15.104C98.7345 16.2187 98.8738 17.46 98.8738 18.828V30H94.2758V19.55C94.2758 18.486 94.1998 17.5867 94.0478 16.852C93.9211 16.092 93.6931 15.484 93.3638 15.028C93.0598 14.5467 92.6418 14.2047 92.1098 14.002C91.5778 13.774 90.9191 13.66 90.1338 13.66C89.5258 13.66 88.9051 13.7233 88.2718 13.85C87.6385 13.9767 87.1698 14.0907 86.8658 14.192V30H82.2678ZM111.377 26.77C112.796 26.77 113.872 26.694 114.607 26.542V21.45C114.354 21.374 113.986 21.298 113.505 21.222C113.024 21.146 112.492 21.108 111.909 21.108C111.402 21.108 110.883 21.146 110.351 21.222C109.844 21.298 109.376 21.4373 108.945 21.64C108.54 21.8427 108.21 22.134 107.957 22.514C107.704 22.8687 107.577 23.3247 107.577 23.882C107.577 24.9713 107.919 25.7313 108.603 26.162C109.287 26.5673 110.212 26.77 111.377 26.77ZM110.997 9.632C112.517 9.632 113.796 9.822 114.835 10.202C115.874 10.582 116.697 11.114 117.305 11.798C117.938 12.482 118.382 13.318 118.635 14.306C118.914 15.2687 119.053 16.3327 119.053 17.498V29.544C118.344 29.696 117.267 29.8733 115.823 30.076C114.404 30.304 112.796 30.418 110.997 30.418C109.806 30.418 108.717 30.304 107.729 30.076C106.741 29.848 105.892 29.4807 105.183 28.974C104.499 28.4673 103.954 27.8087 103.549 26.998C103.169 26.1873 102.979 25.1867 102.979 23.996C102.979 22.856 103.194 21.8933 103.625 21.108C104.081 20.3227 104.689 19.6893 105.449 19.208C106.209 18.7013 107.083 18.3467 108.071 18.144C109.084 17.916 110.136 17.802 111.225 17.802C111.732 17.802 112.264 17.84 112.821 17.916C113.378 17.9667 113.974 18.068 114.607 18.22V17.46C114.607 16.928 114.544 16.4213 114.417 15.94C114.29 15.4587 114.062 15.0407 113.733 14.686C113.429 14.306 113.011 14.0147 112.479 13.812C111.972 13.6093 111.326 13.508 110.541 13.508C109.477 13.508 108.502 13.584 107.615 13.736C106.728 13.888 106.006 14.0653 105.449 14.268L104.879 10.544C105.462 10.3413 106.31 10.1387 107.425 9.936C108.54 9.73333 109.73 9.632 110.997 9.632ZM136.008 19.55C136.008 17.4727 135.742 15.978 135.21 15.066C134.703 14.1287 133.74 13.66 132.322 13.66C131.815 13.66 131.258 13.698 130.65 13.774C130.042 13.85 129.586 13.9133 129.282 13.964V30H124.684V10.772C125.57 10.5187 126.723 10.278 128.142 10.05C129.586 9.822 131.106 9.708 132.702 9.708C134.07 9.708 135.184 9.88533 136.046 10.24C136.932 10.5947 137.667 11.0633 138.25 11.646C138.528 11.4433 138.883 11.228 139.314 11C139.744 10.772 140.226 10.5693 140.758 10.392C141.29 10.1893 141.847 10.0247 142.43 9.898C143.038 9.77133 143.646 9.708 144.254 9.708C145.799 9.708 147.066 9.936 148.054 10.392C149.067 10.8227 149.852 11.4433 150.41 12.254C150.992 13.0393 151.385 14.002 151.588 15.142C151.816 16.2567 151.93 17.4853 151.93 18.828V30H147.332V19.55C147.332 17.4727 147.078 15.978 146.572 15.066C146.065 14.1287 145.09 13.66 143.646 13.66C142.911 13.66 142.214 13.7867 141.556 14.04C140.897 14.268 140.403 14.496 140.074 14.724C140.276 15.3573 140.416 16.0287 140.492 16.738C140.568 17.4473 140.606 18.2073 140.606 19.018V30H136.008V19.55ZM162.199 30H157.601V10.126H162.199V30ZM162.693 4.312C162.693 5.17333 162.414 5.85733 161.857 6.364C161.299 6.87066 160.641 7.124 159.881 7.124C159.095 7.124 158.424 6.87066 157.867 6.364C157.309 5.85733 157.031 5.17333 157.031 4.312C157.031 3.42533 157.309 2.72867 157.867 2.222C158.424 1.71533 159.095 1.462 159.881 1.462C160.641 1.462 161.299 1.71533 161.857 2.222C162.414 2.72867 162.693 3.42533 162.693 4.312ZM174.981 30.38C173.613 30.3547 172.473 30.2027 171.561 29.924C170.674 29.6453 169.965 29.2527 169.433 28.746C168.901 28.214 168.521 27.568 168.293 26.808C168.09 26.0227 167.989 25.136 167.989 24.148V1.272L172.587 0.511999V23.274C172.587 23.8313 172.625 24.3 172.701 24.68C172.802 25.06 172.967 25.3893 173.195 25.668C173.423 25.9213 173.727 26.124 174.107 26.276C174.512 26.4027 175.019 26.504 175.627 26.58L174.981 30.38Z" fill="white"/>
</svg>
