<svg width="512" height="512" viewBox="0 0 512 512" fill="none" xmlns="http://www.w3.org/2000/svg">
<path d="M114.966 72.7394C117.128 72.7501 119.288 72.7394 121.449 72.7267C122.844 72.728 124.238 72.7306 125.633 72.7345C126.88 72.7367 128.126 72.739 129.411 72.7413C134.662 73.1199 138.701 73.9833 142.875 77.2501C145.25 80.3231 145.509 82.2208 146 86.0001C146.812 85.9844 147.623 85.9687 148.459 85.9525C152.16 85.8899 155.861 85.851 159.562 85.8126C161.478 85.7749 161.478 85.7749 163.432 85.7364C175.405 85.6431 175.405 85.6431 181 89.0001C185.961 93.9607 188.08 98.5422 188.195 105.524C188.182 107.141 188.159 108.758 188.125 110.375C188.116 111.207 188.107 112.038 188.098 112.895C188.074 114.93 188.038 116.965 188 119C188.593 119.148 189.186 119.296 189.797 119.448C202.048 122.607 214.674 128.379 224 137C224.682 137.603 225.364 138.207 226.066 138.828C234.038 146.271 238.84 154.693 242.312 164.938C242.555 165.652 242.798 166.367 243.047 167.103C246.394 177.634 247.261 188.339 247.875 199.313C248.44 208.211 249.486 216.12 252.105 224.645C254.772 234.646 255.119 244.761 250.438 254.125C244.948 260.6 236.964 264.233 229.375 267.75C228.483 268.17 227.59 268.59 226.671 269.022C218.787 272.701 210.818 276.185 202.816 279.601C200.203 280.718 197.601 281.856 195 283C194.211 283.333 193.421 283.667 192.608 284.01C188.496 285.802 188.496 285.802 185.816 289.234C185.733 290.065 185.649 290.895 185.562 291.75C185.453 292.722 185.343 293.694 185.23 294.695C185.116 296.331 185.116 296.331 185 298C184.893 299.214 184.786 300.429 184.676 301.68C184.363 305.787 184.152 309.884 184 314C183.971 314.71 183.943 315.421 183.913 316.152C183.596 325.04 184.045 333.066 186.246 341.754C190.045 358.112 190.268 381.925 182 397C177.967 402.124 174.321 403.098 168.188 404.125C166.891 404.363 166.891 404.363 165.568 404.605C144.34 408.353 123.041 410.235 101.5 410.25C100.648 410.251 99.795 410.251 98.9167 410.252C78.3337 410.226 58.2602 408.375 38 404.625C36.4408 404.348 36.4408 404.348 34.8501 404.066C29.1831 402.92 25.5569 401.89 22 397C14.4528 380.616 15.9533 358.096 18.5625 340.684C19.3562 334.001 19.0119 328.456 17.5234 321.918C15.9049 313.787 15.7145 305.762 15.6641 297.488C15.6561 296.183 15.6481 294.877 15.6398 293.531C15.6162 288.082 15.6195 282.633 15.6397 277.184C15.6485 274.467 15.6439 271.751 15.6258 269.034C15.6102 266.506 15.6141 263.978 15.642 261.451C15.556 251.389 12.7633 243.158 8.67179 234.04C2.80256 220.847 1.53148 207.62 1.63673 193.317C1.63725 191.881 1.63672 190.446 1.63522 189.011C1.6353 186.037 1.64551 183.063 1.66383 180.089C1.68666 176.301 1.68702 172.514 1.68031 168.726C1.67695 165.776 1.68363 162.825 1.69344 159.875C1.69725 158.479 1.69846 157.082 1.69685 155.686C1.69458 143.876 2.29291 133.508 10 124C17.1632 117.625 23.7346 114.018 33.375 113.375C34.4346 113.3 35.4942 113.226 36.5859 113.149C37.3826 113.1 38.1792 113.051 39 113C39.098 112.42 39.1959 111.84 39.2969 111.242C40.8892 102.924 44.2803 98.0399 51 93.0001C56.9685 89.2698 64.5566 89.7343 71.375 89.4376C72.3018 89.3944 73.2287 89.3512 74.1836 89.3068C76.4556 89.2014 78.7277 89.0992 81 89.0001C81.3777 88.1926 81.3777 88.1926 81.7629 87.3688C85.2372 80.1456 85.2372 80.1456 88.1875 77.6251C88.6967 77.1636 89.2059 76.7021 89.7305 76.2267C97.419 72.0714 106.479 72.6891 114.966 72.7394ZM104 97.0001C103.734 97.615 103.469 98.2299 103.195 98.8634C102.842 99.6716 102.489 100.48 102.125 101.313C101.777 102.113 101.429 102.914 101.07 103.738C100 106 100 106 98 109C97.6992 110.968 97.6992 110.968 97.7417 113.144C97.7349 113.986 97.7281 114.829 97.721 115.697C97.7236 116.618 97.7261 117.54 97.7288 118.489C97.7209 119.948 97.7209 119.948 97.7129 121.436C97.7027 123.549 97.6969 125.662 97.695 127.776C97.6914 131.116 97.6747 134.456 97.6543 137.797C97.5988 147.294 97.5681 156.792 97.5437 166.289C97.5279 172.096 97.4977 177.902 97.4589 183.709C97.4473 185.926 97.4414 188.143 97.4413 190.361C97.4411 193.454 97.4229 196.547 97.4006 199.641C97.4052 200.564 97.4098 201.487 97.4145 202.438C97.4049 203.278 97.3952 204.118 97.3853 204.983C97.3833 205.715 97.3813 206.447 97.3792 207.201C97 209 97 209 94 211C89.4595 210.46 89.4595 210.46 88 209C87.8747 206.048 87.8139 203.119 87.7947 200.166C87.7848 199.239 87.7749 198.312 87.7647 197.358C87.733 194.279 87.7083 191.2 87.6836 188.121C87.663 185.993 87.642 183.864 87.6206 181.736C87.5653 176.122 87.5159 170.507 87.4678 164.893C87.4176 159.169 87.3619 153.445 87.3066 147.721C87.199 136.481 87.0981 125.24 87 114C79.08 114 71.16 114 63 114C62.01 117.3 61.02 120.6 60 124C59.1277 125.027 58.2554 126.054 57.3567 127.112C53.0755 132.64 54.2734 140.546 54.293 147.215C54.2798 148.797 54.2645 150.379 54.2472 151.96C54.2074 156.105 54.1971 160.249 54.1931 164.394C54.1838 168.63 54.1463 172.867 54.1113 177.104C54.0469 185.402 54.0135 193.701 54 202C49.375 204.125 49.375 204.125 46 203C44.6109 200.222 44.8367 197.915 44.7947 194.806C44.7747 193.505 44.7548 192.204 44.7342 190.863C44.7173 189.438 44.7004 188.012 44.6836 186.586C44.663 185.132 44.642 183.677 44.6206 182.223C44.5654 178.392 44.516 174.562 44.4678 170.731C44.4176 166.823 44.3619 162.916 44.3066 159.008C44.1991 151.339 44.0976 143.669 44 136C41.9143 136.229 39.8314 136.484 37.75 136.75C36.5899 136.889 35.4297 137.029 34.2344 137.172C30.6177 138.098 29.3051 139.124 27 142C25.6226 144.755 25.8499 146.996 25.823 150.079C25.8102 151.359 25.7973 152.638 25.7841 153.956C25.7759 155.363 25.7685 156.769 25.7617 158.176C25.7577 158.886 25.7536 159.596 25.7494 160.328C25.7285 164.097 25.7142 167.866 25.7048 171.635C25.6939 175.497 25.6596 179.358 25.6197 183.22C25.5933 186.214 25.5851 189.207 25.5816 192.201C25.5767 193.622 25.5653 195.043 25.5465 196.464C25.3787 210.047 28.7627 220.916 34.5352 233.027C38.7475 243.363 39.4262 254.313 39.3711 265.332C39.384 267.344 39.397 269.356 39.4113 271.368C39.4409 276.245 39.4378 281.121 39.4358 285.997C39.3655 308.295 39.3655 308.295 44 330C82.4136 333.738 120.568 333.513 159 330C159.733 324.828 160.131 319.759 160.291 314.539C160.561 305.796 161.177 297.168 162.375 288.5C162.489 287.635 162.603 286.77 162.72 285.878C163.916 277.797 166.43 272.886 172.765 267.634C176.334 265.025 180.103 263.184 184.125 261.375C185.001 260.968 185.877 260.562 186.779 260.142C192.45 257.535 198.172 255.048 203.902 252.574C204.577 252.283 205.252 251.991 205.948 251.691C209.309 250.242 212.674 248.803 216.045 247.379C216.676 247.11 217.306 246.841 217.955 246.565C219.677 245.831 221.401 245.103 223.125 244.375C225.739 243.125 227.849 241.935 230 240C230.342 237.749 230.342 237.749 229.875 235.313C229.75 234.435 229.625 233.557 229.496 232.652C228.821 229.044 227.983 225.537 227 222C222.133 222.947 217.279 223.915 212.457 225.07C203.149 227.23 194.194 228.393 184.625 228.438C183.657 228.447 182.688 228.457 181.691 228.467C176.389 228.403 172.571 227.975 168 225C163.813 220.524 163.758 215.752 163.822 209.881C164.15 204.582 165.246 199.442 166.312 194.25C166.54 193.09 166.767 191.929 167.001 190.734C168.106 185.14 169.347 179.636 170.812 174.125C172.164 166.884 172.43 159.788 172.562 152.438C172.602 151.198 172.641 149.959 172.681 148.682C172.928 142.582 172.928 142.582 170.66 137.157C168.864 135.66 168.864 135.66 166 134C165.048 131.145 164.81 129.091 164.684 126.113C164.621 124.707 164.621 124.707 164.557 123.272C164.517 122.295 164.478 121.319 164.438 120.313C164.394 119.325 164.351 118.336 164.307 117.318C164.201 114.879 164.1 112.44 164 110C158.72 110 153.44 110 148 110C147.99 111.136 147.979 112.271 147.969 113.441C147.871 124.125 147.768 134.808 147.661 145.491C147.605 150.984 147.552 156.477 147.503 161.97C147.455 167.267 147.403 172.565 147.347 177.862C147.327 179.886 147.308 181.911 147.291 183.936C147.267 186.764 147.237 189.592 147.205 192.42C147.2 193.263 147.194 194.107 147.188 194.976C147.114 200.772 147.114 200.772 146 203C143.625 203.75 143.625 203.75 141 204C139.515 203.01 139.515 203.01 138 202C137.726 199.006 137.646 196.218 137.695 193.224C137.699 191.86 137.699 191.86 137.703 190.469C137.71 188.49 137.723 186.512 137.742 184.533C137.77 181.402 137.775 178.271 137.773 175.14C137.769 166.236 137.792 157.332 137.866 148.429C137.909 142.986 137.914 137.544 137.894 132.102C137.894 130.026 137.909 127.951 137.939 125.876C137.98 122.971 137.972 120.07 137.952 117.165C137.977 116.307 138.001 115.449 138.025 114.565C137.979 112.127 137.867 110.283 137 108C135.067 106.307 133.207 105.206 130.895 104.093C129 103 129 103 127.172 99.7111C125.325 96.8176 125.325 96.8176 122.732 96.5245C119.882 96.4087 117.099 96.4772 114.25 96.6251C112.775 96.6657 112.775 96.6657 111.27 96.7071C108.844 96.7778 106.423 96.8764 104 97.0001ZM183 143C183.012 143.553 183.023 144.106 183.035 144.676C183.226 161.594 180.467 177.26 176.795 193.694C176.614 194.514 176.432 195.334 176.246 196.179C175.904 197.717 175.554 199.253 175.194 200.786C174.108 205.634 173.685 210.027 174 215C175.614 218.134 175.614 218.134 178.029 218.551C184.216 219.069 189.932 218.826 196.062 217.875C196.96 217.743 197.857 217.61 198.782 217.474C207.436 216.102 215.696 213.754 224 211C224.487 191.939 223.538 171.679 210.105 156.918C202.862 149.889 193.101 144.211 183 143ZM43 340C42.6687 341.896 42.3418 343.792 42.0166 345.689C41.7428 347.273 41.7428 347.273 41.4634 348.889C40.828 353.155 40.6993 357.32 40.75 361.625C40.7539 362.438 40.7577 363.25 40.7617 364.087C40.846 369.937 41.5113 375.324 43 381C45.29 381.468 47.5816 381.924 49.875 382.375C51.7893 382.758 51.7893 382.758 53.7422 383.149C68.8219 385.749 83.7876 386.4 99.0625 386.375C100.055 386.376 101.048 386.377 102.072 386.379C122.373 386.367 141.994 384.362 162 381C163.622 374.799 164.324 369.028 164.25 362.625C164.243 361.389 164.243 361.389 164.236 360.128C164.582 349.889 164.582 349.889 161 341C154.483 340.636 147.963 340.976 141.465 341.496C129.433 342.329 117.359 342.187 105.305 342.185C102.536 342.185 99.7676 342.192 96.999 342.206C78.9175 342.294 61.0124 341.733 43 340Z" fill="#C4C4C4"/>
<path d="M392.555 72.8149C394.729 72.8127 396.903 72.7946 399.078 72.7756C418.415 72.6928 418.415 72.6928 424.375 78.1877C425.001 78.7382 425.628 79.2886 426.273 79.8557C428.575 82.7147 429.666 85.5839 431 89.0002C431.564 89.02 432.128 89.0399 432.709 89.0603C435.306 89.1565 437.903 89.2658 440.5 89.3752C441.387 89.4062 442.274 89.4371 443.187 89.469C453.034 89.9034 460.465 91.4652 467.687 98.6877C470.796 102.609 473 107.956 473 113C474.143 113.039 474.143 113.039 475.309 113.078C485.742 113.651 494.417 116.545 502 124C509.989 134.398 510.315 145.097 510.301 157.754C510.305 159.183 510.309 160.611 510.314 162.04C510.321 165.026 510.321 168.012 510.316 170.999C510.31 174.778 510.327 178.557 510.35 182.336C510.365 185.287 510.366 188.238 510.362 191.189C510.363 192.579 510.368 193.97 510.378 195.361C510.475 210.325 508.14 223.317 502 237C497.949 246.571 496.284 254.745 496.398 265.113C496.386 267.092 496.374 269.07 496.361 271.048C496.348 273.781 496.358 276.515 496.368 279.248C496.389 285.328 496.373 291.408 496.336 297.488C496.324 299.416 496.324 299.416 496.312 301.382C496.198 309.691 495.487 317.481 493.643 325.579C492.441 331.972 493.039 338.023 494 344.438C495.655 356.828 495.386 368.681 493.687 381.063C493.57 381.931 493.452 382.8 493.331 383.694C491.305 397.104 491.305 397.104 486.16 401.336C480.63 403.972 474.431 404.674 468.437 405.625C467.135 405.837 465.833 406.049 464.492 406.267C460.666 406.878 456.834 407.446 453 408C452.052 408.137 451.103 408.274 450.126 408.416C416.868 412.927 382.009 410.491 349.062 405C348.139 404.846 347.215 404.693 346.264 404.534C333.884 402.291 333.884 402.291 330.195 397.805C328.711 394.321 327.734 390.801 326.875 387.125C326.706 386.443 326.537 385.761 326.363 385.059C322.847 370.524 322.885 355.901 326 341.313C329.477 324.838 330.358 303.074 325 287C323.287 285.819 323.287 285.819 321.117 284.871C320.291 284.481 319.465 284.091 318.613 283.689C317.71 283.276 316.806 282.863 315.875 282.438C314.477 281.785 314.477 281.785 313.051 281.118C306.088 277.89 299.052 274.84 292 271.813C265.984 260.633 265.984 260.633 260.187 252.438C256.286 241.144 258.188 229.069 261.516 217.86C263.232 211.698 263.654 205.678 264 199.313C265.381 178.837 268.195 159.025 282 143C283 141.817 283 141.817 284.019 140.61C293.482 130.287 310.09 121.254 324 119C323.954 117.721 323.907 116.443 323.859 115.125C323.822 113.417 323.785 111.709 323.75 110C323.716 109.161 323.683 108.322 323.648 107.457C323.545 100.816 324.834 95.4159 329.448 90.438C334.357 86.0873 338.153 85.8736 344.516 85.9026C345.766 85.9058 347.016 85.909 348.305 85.9123C350.258 85.9249 350.258 85.9249 352.25 85.9377C353.567 85.9422 354.885 85.9467 356.242 85.9514C359.495 85.9632 362.747 85.9796 366 86.0002C366.149 85.219 366.299 84.4379 366.453 83.633C367.269 79.7072 368.02 77.7156 371.312 75.3127C377.952 72.0699 385.336 72.8141 392.555 72.8149ZM384.828 99.7112C384.225 100.797 383.622 101.882 383 103C381.107 104.092 381.107 104.092 378.948 105.131C375.912 106.947 375.912 106.947 374.253 109.95C373.974 112.396 373.944 114.736 374 117.197C373.989 118.114 373.978 119.032 373.967 119.977C373.94 123.003 373.97 126.025 374 129.051C373.992 131.151 373.981 133.252 373.967 135.352C373.939 140.875 373.958 146.396 373.987 151.918C374.008 157.556 373.985 163.193 373.965 168.83C373.932 179.887 373.95 190.943 374 202C369.375 204.125 369.375 204.125 366 203C364.353 199.707 364.819 196.041 364.795 192.42C364.785 191.532 364.775 190.644 364.765 189.729C364.733 186.786 364.708 183.842 364.684 180.899C364.663 178.861 364.642 176.824 364.621 174.787C364.565 169.417 364.516 164.048 364.468 158.679C364.418 153.203 364.362 147.726 364.307 142.25C364.199 131.5 364.098 120.75 364 110C358.72 110 353.44 110 348 110C347.963 111.458 347.925 112.916 347.887 114.418C347.821 116.341 347.755 118.265 347.687 120.188C347.665 121.147 347.642 122.107 347.619 123.096C347.275 132.141 347.275 132.141 344 136C343.318 136.428 342.636 136.856 341.933 137.297C339.792 138.853 339.792 138.853 339.435 141.387C339.354 144.636 339.294 147.875 339.312 151.125C339.313 152.347 339.314 153.568 339.315 154.827C339.623 169.12 342.833 182.793 346.244 196.621C348.202 205.372 349.499 214.503 346 223C339.063 229.759 330.378 228.387 321.305 228.293C313.093 228.046 305.294 226.448 297.33 224.54C293.241 223.592 289.12 222.802 285 222C284.467 224.226 283.949 226.456 283.437 228.688C283.147 229.929 282.857 231.17 282.559 232.449C281.824 236.852 281.824 236.852 283 241C285.093 242.467 286.886 243.457 289.187 244.5C290.204 244.986 290.204 244.986 291.241 245.482C300.104 249.648 309.152 253.451 318.175 257.256C343.115 267.829 343.115 267.829 346.953 276.039C351.08 288.138 351.222 301.631 351.659 314.286C351.847 319.585 352.258 324.749 353 330C391.423 333.705 429.557 333.545 468 330C473.125 314.298 472.54 298.257 472.5 281.938C472.417 247.699 472.417 247.699 477 235C477.35 234.012 477.701 233.024 478.062 232.006C479.041 229.409 480.089 226.861 481.187 224.313C481.893 222.644 482.595 220.973 483.293 219.301C483.597 218.591 483.902 217.881 484.216 217.15C485.879 212.592 486.129 208.264 486.145 203.437C486.152 202.129 486.158 200.821 486.165 199.474C486.166 198.054 486.167 196.635 486.168 195.215C486.171 193.752 486.175 192.289 486.178 190.826C486.184 187.766 486.186 184.705 486.185 181.645C486.185 177.725 486.199 173.805 486.216 169.886C486.227 166.867 486.229 163.848 486.229 160.829C486.23 159.384 486.234 157.939 486.242 156.493C486.252 154.473 486.248 152.453 486.243 150.434C486.244 149.285 486.246 148.137 486.247 146.953C486.003 144.037 485.615 142.412 484 140C480.313 137.511 477.127 136.798 472.781 136.418C471.885 136.337 470.988 136.256 470.064 136.173C469.383 136.116 468.702 136.059 468 136C467.99 136.81 467.979 137.62 467.969 138.454C467.871 146.077 467.768 153.699 467.661 161.321C467.605 165.24 467.552 169.159 467.503 173.078C467.455 176.859 467.403 180.639 467.347 184.419C467.327 185.863 467.308 187.307 467.291 188.751C467.267 190.77 467.236 192.788 467.205 194.806C467.19 195.957 467.174 197.107 467.158 198.292C467 201 467 201 466 203C463.625 203.75 463.625 203.75 461 204C460.01 203.34 459.02 202.68 458 202C457.642 199.125 457.642 199.125 457.663 195.398C457.662 194.72 457.662 194.042 457.661 193.343C457.661 191.867 457.668 190.391 457.681 188.915C457.699 186.572 457.697 184.231 457.688 181.888C457.666 175.226 457.677 168.565 457.715 161.904C457.737 157.829 457.73 153.756 457.705 149.681C457.701 148.134 457.709 146.587 457.728 145.04C457.924 133.757 457.924 133.757 452.483 124.176C451 122 451 122 449 114C441.08 114 433.16 114 425 114C424.985 116.868 424.971 119.735 424.956 122.689C424.906 132.145 424.839 141.6 424.764 151.056C424.719 156.791 424.68 162.526 424.654 168.261C424.628 173.792 424.587 179.322 424.537 184.853C424.52 186.967 424.509 189.081 424.502 191.195C424.493 194.148 424.465 197.1 424.432 200.052C424.434 200.934 424.435 201.815 424.437 202.723C424.399 205.153 424.399 205.153 424 209C421 211 421 211 418.375 210.688C416 210 416 210 415 209C414.896 205.927 414.856 202.876 414.858 199.802C414.855 198.836 414.851 197.87 414.848 196.875C414.84 194.77 414.835 192.664 414.831 190.558C414.824 187.225 414.808 183.893 414.79 180.56C414.737 171.081 414.69 161.602 414.674 152.123C414.664 146.331 414.635 140.54 414.593 134.749C414.58 132.54 414.575 130.332 414.577 128.124C414.58 125.03 414.558 121.938 414.53 118.845C414.537 117.933 414.543 117.021 414.55 116.082C414.468 110.496 413.56 107.518 410 103C408.75 99.6252 408.75 99.6252 408 97.0002C404.584 96.8258 401.169 96.7193 397.75 96.6252C396.782 96.5749 395.814 96.5247 394.816 96.4729C389.006 96.1451 389.006 96.1451 384.828 99.7112ZM301.039 157.906C287.701 172.089 287.798 192.68 288 211C297.209 214.054 306.328 216.456 315.937 217.875C316.788 218.007 317.638 218.139 318.514 218.275C324.277 219.06 330.325 219.542 336 218C339.151 213.273 338.35 208.279 337.281 202.909C336.957 201.46 336.624 200.012 336.285 198.567C335.924 196.943 335.564 195.318 335.205 193.694C335.018 192.855 334.83 192.016 334.637 191.152C331.056 175.012 328.652 159.606 329 143C318.605 143 308.155 150.989 301.039 157.906ZM463.561 340.431C446.697 342.004 429.929 342.279 413.012 342.196C410.228 342.185 407.444 342.185 404.66 342.186C379.104 342.185 379.104 342.185 367.145 341.218C361.767 340.845 356.387 340.917 351 341C348.431 348.193 347.818 354.751 347.812 362.313C347.8 363.116 347.788 363.92 347.775 364.748C347.762 370.407 348.553 375.533 350 381C354.437 381.651 358.875 382.295 363.312 382.938C364.556 383.12 365.799 383.303 367.08 383.49C368.922 383.756 368.922 383.756 370.801 384.028C371.916 384.19 373.032 384.352 374.181 384.52C382.545 385.572 390.829 386.161 399.258 386.203C400.197 386.21 401.135 386.217 402.103 386.224C405.11 386.241 408.117 386.248 411.125 386.25C412.661 386.253 412.661 386.253 414.229 386.255C432.853 386.257 450.806 385.231 469 381C472.474 367.754 471.975 353.308 469 340C467.181 340 465.37 340.253 463.561 340.431Z" fill="#C4C4C4"/>
</svg>
